<?xml version="1.0" standalone="no"?>
<!DOCTYPE svg PUBLIC "-//W3C//DTD SVG 20010904//EN"
 "http://www.w3.org/TR/2001/REC-SVG-20010904/DTD/svg10.dtd">
<svg version="1.0" xmlns="http://www.w3.org/2000/svg"
 width="1182.000000pt" height="567.000000pt" viewBox="0 0 1182.000000 567.000000"
 preserveAspectRatio="xMidYMid meet">

<g transform="translate(0.000000,567.000000) scale(0.100000,-0.100000)"
fill="#000000" stroke="none">
<path d="M6796 4879 c-204 -22 -352 -83 -462 -193 -109 -108 -154 -217 -154
-367 0 -243 166 -422 490 -527 52 -17 165 -49 250 -71 223 -56 295 -93 326
-168 30 -70 14 -142 -43 -194 -50 -47 -92 -62 -183 -67 -115 -5 -184 20 -257
93 -41 42 -56 67 -72 120 -12 37 -21 76 -21 86 0 23 1 23 -325 1 l-240 -17 3
-40 c14 -167 130 -383 256 -473 176 -126 504 -181 826 -137 210 28 341 86 464
207 43 43 80 78 81 78 2 0 6 -21 10 -47 41 -272 239 -535 502 -667 90 -45 198
-81 283 -95 36 -6 76 -13 90 -15 14 -3 31 -5 39 -5 8 -1 -5 -21 -31 -49 -172
-184 -249 -439 -235 -777 18 -440 247 -761 619 -865 220 -62 507 -66 718 -9
101 27 242 97 315 156 88 71 171 176 221 278 l43 90 1 -267 0 -268 755 0 755
0 0 235 0 235 -460 0 -460 0 0 720 0 720 -295 0 -295 0 0 -262 -1 -263 -38 76
c-130 261 -335 409 -643 466 l-88 16 82 56 c113 76 308 273 387 389 220 325
296 677 215 999 -130 520 -669 815 -1264 693 -296 -61 -556 -199 -778 -414
-147 -143 -226 -248 -311 -418 l-69 -136 -28 51 c-38 71 -135 164 -225 214
-91 52 -292 119 -502 168 -209 48 -250 62 -286 98 -25 23 -31 38 -31 71 0 51
29 100 72 122 44 23 162 30 229 14 74 -18 147 -91 173 -172 l18 -58 46 0 c62
0 416 20 468 26 l41 5 -8 47 c-35 189 -128 332 -269 415 -149 86 -431 125
-704 96z m2718 -183 c200 -52 370 -159 487 -305 137 -171 196 -329 206 -541
19 -445 -225 -881 -655 -1174 -346 -235 -800 -312 -1152 -196 -300 100 -521
335 -601 640 -29 109 -32 343 -5 458 50 226 155 432 310 614 87 101 423 356
541 410 92 41 252 92 340 107 33 6 71 13 85 15 14 3 97 3 185 1 133 -2 177 -7
259 -29z m15 -2555 c110 -42 186 -132 223 -267 18 -66 21 -106 21 -239 0 -247
-36 -371 -134 -459 -73 -66 -142 -89 -259 -89 -128 0 -194 25 -271 102 -96 96
-135 246 -126 481 11 285 88 419 275 481 72 24 194 20 271 -10z"/>
<path d="M9174 4256 c-80 -25 -169 -81 -235 -147 -84 -85 -104 -125 -104 -210
0 -90 37 -152 115 -192 49 -26 62 -28 125 -24 46 4 108 19 184 46 134 48 172
51 206 16 42 -41 29 -92 -33 -136 -52 -37 -90 -42 -137 -19 -22 11 -47 25 -56
31 -13 10 -32 0 -107 -60 -51 -40 -92 -76 -92 -81 0 -15 74 -73 119 -94 65
-29 149 -27 226 5 126 52 253 158 297 247 33 67 32 179 0 242 -50 95 -111 134
-212 133 -71 0 -116 -11 -260 -67 -108 -42 -138 -43 -159 -4 -14 25 -14 29 5
54 50 67 120 86 174 46 l27 -20 89 69 c49 39 90 74 92 78 2 5 -15 24 -37 43
-65 56 -142 71 -227 44z"/>
<path d="M8497 3794 l-107 -75 45 -62 c142 -198 284 -406 292 -432 12 -34 2
-71 -25 -91 -31 -24 -69 -16 -112 22 l-40 36 -90 -82 -91 -83 38 -39 c57 -59
126 -91 199 -92 122 -2 294 114 349 235 55 124 27 198 -194 514 -85 121 -154
221 -155 222 -1 1 -50 -32 -109 -73z"/>
<path d="M132 3898 l3 -953 295 0 295 0 3 389 2 389 65 -5 c84 -7 140 -40 186
-110 20 -29 109 -190 199 -356 89 -167 168 -306 174 -308 6 -2 158 -3 337 -2
l326 3 -146 281 c-80 155 -164 307 -185 338 -65 95 -136 159 -209 191 l-66 29
74 23 c96 30 214 109 264 177 80 106 111 201 111 336 0 212 -94 377 -263 460
-136 66 -179 70 -870 70 l-597 0 2 -952z m1018 548 c79 -29 113 -78 114 -166
1 -93 -51 -155 -152 -180 -26 -6 -122 -14 -214 -17 l-168 -5 0 197 0 198 188
-6 c137 -4 199 -9 232 -21z"/>
<path d="M740 2609 c-250 -18 -404 -80 -526 -210 -62 -66 -98 -127 -117 -199
-70 -256 31 -475 278 -602 119 -61 195 -87 412 -142 215 -54 276 -79 325 -134
65 -72 63 -155 -3 -227 -50 -55 -113 -77 -212 -77 -85 1 -164 26 -219 72 -43
35 -97 138 -105 199 -3 23 -9 44 -14 46 -4 3 -132 -3 -283 -12 -214 -13 -276
-20 -276 -31 0 -37 35 -175 59 -232 31 -75 92 -168 147 -223 132 -134 348
-197 674 -197 364 0 609 102 749 310 l39 60 53 -66 c139 -174 311 -260 593
-295 121 -15 332 -7 441 16 247 52 431 201 540 439 36 78 70 184 61 193 -6 6
-486 152 -502 153 -7 0 -17 -21 -23 -47 -20 -78 -77 -186 -122 -231 -62 -60
-131 -85 -244 -84 -238 0 -338 118 -365 426 -18 206 10 394 74 494 37 60 108
118 172 142 50 18 74 21 154 18 83 -3 102 -7 143 -31 78 -46 113 -83 148 -157
19 -39 39 -70 44 -70 20 0 496 108 502 114 3 3 -7 36 -23 73 -53 126 -105 205
-193 294 -98 98 -198 154 -335 189 -159 40 -428 43 -602 6 -211 -45 -402 -165
-509 -321 l-38 -54 -29 62 c-101 212 -282 313 -606 337 -70 5 -134 9 -142 8
-8 0 -62 -4 -120 -9z m240 -385 c57 -31 105 -94 122 -162 6 -23 13 -44 17 -46
3 -2 103 2 221 9 118 7 216 12 216 12 1 -1 -7 -36 -17 -77 -11 -41 -22 -108
-26 -147 -3 -40 -8 -73 -10 -73 -3 0 -32 15 -66 34 -80 45 -257 105 -427 145
-348 83 -390 104 -390 191 0 65 50 120 126 140 69 17 177 5 234 -26z"/>
<path d="M6643 2610 c-239 -25 -425 -106 -568 -245 -77 -76 -115 -127 -164
-220 l-31 -60 0 248 0 247 -295 0 -295 0 -2 -332 -3 -333 -320 0 -320 0 -3
333 -2 332 -295 0 -295 0 0 -955 0 -955 295 0 295 0 2 387 3 388 320 0 320 0
3 -387 2 -388 295 0 295 0 0 248 0 247 47 -85 c57 -102 197 -248 288 -301 286
-167 780 -187 1075 -44 277 134 436 366 481 703 14 109 6 392 -15 482 -94 409
-373 644 -817 690 -112 11 -188 11 -296 0z m300 -470 c123 -46 205 -160 234
-326 17 -101 14 -320 -7 -414 -18 -82 -62 -172 -105 -215 -78 -78 -214 -116
-339 -96 -168 28 -268 125 -313 307 -24 99 -23 362 2 459 42 165 127 261 265
300 71 19 188 13 263 -15z"/>
</g>
</svg>
